<svg width="79" height="19" viewBox="0 0 79 19" fill="none" xmlns="http://www.w3.org/2000/svg">
<path d="M2.6 18C1.976 18 1.504 17.84 1.184 17.52C0.864 17.184 0.704 16.712 0.704 16.104V2.928C0.704 2.32 0.864 1.856 1.184 1.536C1.504 1.2 1.968 1.032 2.576 1.032C3.808 1.032 4.424 1.664 4.424 2.928V14.856H10.856C11.928 14.856 12.464 15.376 12.464 16.416C12.464 17.472 11.928 18 10.856 18H2.6ZM20.1526 18.264C18.7606 18.264 17.5606 18.016 16.5526 17.52C15.5606 17.008 14.7926 16.296 14.2486 15.384C13.7206 14.456 13.4566 13.368 13.4566 12.12C13.4566 10.904 13.7126 9.84 14.2246 8.928C14.7526 8 15.4646 7.28 16.3606 6.768C17.2726 6.24 18.3206 5.976 19.5046 5.976C21.2166 5.976 22.5766 6.52 23.5846 7.608C24.5926 8.68 25.0966 10.136 25.0966 11.976C25.0966 12.584 24.7206 12.888 23.9686 12.888H16.9126C17.0406 13.816 17.3766 14.496 17.9206 14.928C18.4806 15.344 19.2486 15.552 20.2246 15.552C20.6086 15.552 21.0406 15.512 21.5206 15.432C22.0166 15.336 22.4886 15.176 22.9366 14.952C23.4006 14.728 23.7926 14.688 24.1126 14.832C24.4326 14.96 24.6486 15.184 24.7606 15.504C24.8886 15.824 24.8886 16.16 24.7606 16.512C24.6486 16.848 24.3846 17.128 23.9686 17.352C23.4086 17.656 22.7846 17.88 22.0966 18.024C21.4246 18.184 20.7766 18.264 20.1526 18.264ZM19.6486 8.376C18.8806 8.376 18.2566 8.608 17.7766 9.072C17.3126 9.536 17.0246 10.184 16.9126 11.016H22.0966C22.0006 9.256 21.1846 8.376 19.6486 8.376ZM31.9856 18.216C31.0416 18.216 30.3536 17.72 29.9216 16.728L26.2976 8.376C26.0256 7.752 26.0176 7.208 26.2736 6.744C26.5296 6.264 27.0576 6.024 27.8576 6.024C28.2896 6.024 28.6416 6.128 28.9136 6.336C29.1856 6.528 29.4256 6.904 29.6336 7.464L32.1056 13.704L34.6496 7.44C34.8736 6.896 35.1216 6.528 35.3936 6.336C35.6656 6.128 36.0416 6.024 36.5216 6.024C37.1296 6.024 37.5616 6.264 37.8176 6.744C38.0736 7.208 38.0576 7.744 37.7696 8.352L34.0736 16.728C33.6576 17.72 32.9616 18.216 31.9856 18.216ZM41.6379 4.056C40.9659 4.056 40.4459 3.904 40.0779 3.6C39.7259 3.28 39.5499 2.832 39.5499 2.256C39.5499 1.664 39.7259 1.216 40.0779 0.912C40.4459 0.591999 40.9659 0.431999 41.6379 0.431999C43.0139 0.431999 43.7019 1.04 43.7019 2.256C43.7019 3.456 43.0139 4.056 41.6379 4.056ZM41.6379 18.192C41.0459 18.192 40.5899 18.024 40.2699 17.688C39.9659 17.336 39.8139 16.848 39.8139 16.224V8.016C39.8139 6.688 40.4219 6.024 41.6379 6.024C42.2139 6.024 42.6539 6.2 42.9579 6.552C43.2779 6.888 43.4379 7.376 43.4379 8.016V16.224C43.4379 16.848 43.2859 17.336 42.9819 17.688C42.6779 18.024 42.2299 18.192 41.6379 18.192Z" fill="white"/>
<path d="M54.7558 18.264C52.9318 18.264 51.3718 17.904 50.0758 17.184C48.7798 16.464 47.7798 15.456 47.0758 14.16C46.3878 12.848 46.0438 11.304 46.0438 9.528C46.0438 7.768 46.3878 6.24 47.0758 4.944C47.7798 3.632 48.7798 2.616 50.0758 1.896C51.3718 1.176 52.9318 0.816 54.7558 0.816C55.5558 0.816 56.3638 0.92 57.1797 1.128C58.0118 1.336 58.7318 1.616 59.3398 1.968C59.8358 2.256 60.1398 2.616 60.2518 3.048C60.3638 3.48 60.3238 3.888 60.1318 4.272C59.9558 4.656 59.6758 4.928 59.2918 5.088C58.9078 5.248 58.4758 5.192 57.9958 4.92C57.5158 4.632 57.0118 4.424 56.4838 4.296C55.9558 4.168 55.4198 4.104 54.8758 4.104C53.2598 4.104 52.0358 4.576 51.2038 5.52C50.3878 6.448 49.9798 7.784 49.9798 9.528C49.9798 11.272 50.3878 12.616 51.2038 13.56C52.0358 14.504 53.2598 14.976 54.8758 14.976C55.3878 14.976 55.9078 14.912 56.4358 14.784C56.9798 14.656 57.4998 14.456 57.9958 14.184C58.5078 13.912 58.9558 13.856 59.3398 14.016C59.7238 14.16 60.0038 14.416 60.1798 14.784C60.3718 15.136 60.4198 15.528 60.3238 15.96C60.2278 16.376 59.9558 16.72 59.5078 16.992C58.8998 17.392 58.1638 17.704 57.2998 17.928C56.4518 18.152 55.6038 18.264 54.7558 18.264ZM69.5407 18.216C69.0287 18.216 68.6047 18.104 68.2687 17.88C67.9487 17.64 67.6847 17.28 67.4767 16.8L61.4287 3.36C61.1087 2.64 61.1087 2.048 61.4287 1.584C61.7647 1.104 62.2687 0.863999 62.9407 0.863999C63.4847 0.863999 63.8927 0.991999 64.1647 1.248C64.4527 1.488 64.7007 1.848 64.9087 2.328L69.6127 13.224L74.3167 2.304C74.5087 1.84 74.7487 1.488 75.0367 1.248C75.3407 0.991999 75.7487 0.863999 76.2607 0.863999C76.8847 0.863999 77.3487 1.104 77.6527 1.584C77.9727 2.048 77.9727 2.64 77.6527 3.36L71.6047 16.8C71.3807 17.28 71.1087 17.64 70.7887 17.88C70.4847 18.104 70.0687 18.216 69.5407 18.216Z" fill="#5893F9"/>
</svg>
