<svg width="10" height="10" viewBox="0 0 10 10" fill="none" xmlns="http://www.w3.org/2000/svg">
<path d="M9.72495 0.282493C9.43245 -0.0100065 8.95995 -0.0100065 8.66745 0.282493L4.99995 3.94249L1.33245 0.274993C1.03995 -0.0175067 0.567447 -0.0175067 0.274947 0.274993C-0.0175525 0.567493 -0.0175525 1.03999 0.274947 1.33249L3.94245 4.99999L0.274947 8.66749C-0.0175525 8.95999 -0.0175525 9.43249 0.274947 9.72499C0.567447 10.0175 1.03995 10.0175 1.33245 9.72499L4.99995 6.05749L8.66745 9.72499C8.95995 10.0175 9.43245 10.0175 9.72495 9.72499C10.0174 9.43249 10.0174 8.95999 9.72495 8.66749L6.05745 4.99999L9.72495 1.33249C10.0099 1.04749 10.0099 0.567493 9.72495 0.282493Z" fill="#9EA9BA"/>
</svg>
